<?xml version="1.0" encoding="UTF-8" standalone="no"?>
<!DOCTYPE svg PUBLIC "-//W3C//DTD SVG 1.1//EN"
 "http://www.w3.org/Graphics/SVG/1.1/DTD/svg11.dtd">
<!-- Generated by graphviz version 2.40.1 (20161225.0304)
 -->
<!-- Title: parser.y Pages: 1 -->
<svg width="1411pt" height="1939pt"
 viewBox="0.00 0.00 1410.98 1938.60" xmlns="http://www.w3.org/2000/svg" xmlns:xlink="http://www.w3.org/1999/xlink">
<g id="graph0" class="graph" transform="scale(1 1) rotate(0) translate(4 1934.6)">
<title>parser.y</title>
<polygon fill="#ffffff" stroke="transparent" points="-4,4 -4,-1934.6 1406.9796,-1934.6 1406.9796,4 -4,4"/>
<!-- 0 -->
<g id="node1" class="node">
<title>0</title>
<polygon fill="none" stroke="#000000" points="427.951,-1930.4014 202.021,-1930.4014 202.021,-1873.1986 427.951,-1873.1986 427.951,-1930.4014"/>
<text text-anchor="middle" x="314.986" y="-1914" font-family="Courier,monospace" font-size="14.00" fill="#000000">State 0</text>
<text text-anchor="start" x="210.0035" y="-1881.2" font-family="Courier,monospace" font-size="14.00" fill="#000000"> &#160;0 $accept: . Start $end</text>
</g>
<!-- 1 -->
<g id="node2" class="node">
<title>1</title>
<polygon fill="none" stroke="#000000" points="183.958,-1820.0014 .014,-1820.0014 .014,-1762.7986 183.958,-1762.7986 183.958,-1820.0014"/>
<text text-anchor="middle" x="91.986" y="-1803.6" font-family="Courier,monospace" font-size="14.00" fill="#000000">State 1</text>
<text text-anchor="start" x="8" y="-1770.8" font-family="Courier,monospace" font-size="14.00" fill="#000000"> &#160;2 section1: DATE .</text>
</g>
<!-- 0&#45;&gt;1 -->
<g id="edge1" class="edge">
<title>0&#45;&gt;1</title>
<path fill="none" stroke="#000000" d="M256.9775,-1873.0819C227.0262,-1858.254 190.3261,-1840.085 159.1501,-1824.6507"/>
<polygon fill="#000000" stroke="#000000" points="160.6058,-1821.466 150.091,-1820.1659 157.5,-1827.7393 160.6058,-1821.466"/>
<text text-anchor="middle" x="233.7832" y="-1842.4" font-family="Courier,monospace" font-size="14.00" fill="#000000">DATE</text>
</g>
<!-- 2 -->
<g id="node3" class="node">
<title>2</title>
<polygon fill="none" stroke="#000000" points="427.951,-1820.0014 202.021,-1820.0014 202.021,-1762.7986 427.951,-1762.7986 427.951,-1820.0014"/>
<text text-anchor="middle" x="314.986" y="-1803.6" font-family="Courier,monospace" font-size="14.00" fill="#000000">State 2</text>
<text text-anchor="start" x="210.0035" y="-1770.8" font-family="Courier,monospace" font-size="14.00" fill="#000000"> &#160;0 $accept: Start . $end</text>
</g>
<!-- 0&#45;&gt;2 -->
<g id="edge2" class="edge">
<title>0&#45;&gt;2</title>
<path fill="none" stroke="#000000" stroke-dasharray="5,2" d="M314.986,-1873.0819C314.986,-1860.1504 314.986,-1844.6778 314.986,-1830.6942"/>
<polygon fill="#000000" stroke="#000000" points="318.4861,-1830.3578 314.986,-1820.3578 311.4861,-1830.3579 318.4861,-1830.3578"/>
<text text-anchor="middle" x="335.9825" y="-1842.4" font-family="Courier,monospace" font-size="14.00" fill="#000000">Start</text>
</g>
<!-- 3 -->
<g id="node4" class="node">
<title>3</title>
<polygon fill="none" stroke="#000000" points="991.5978,-1820.0014 446.3742,-1820.0014 446.3742,-1762.7986 991.5978,-1762.7986 991.5978,-1820.0014"/>
<text text-anchor="middle" x="718.986" y="-1803.6" font-family="Courier,monospace" font-size="14.00" fill="#000000">State 3</text>
<text text-anchor="start" x="454.4301" y="-1770.8" font-family="Courier,monospace" font-size="14.00" fill="#000000"> &#160;1 Start: section1 . SEPARATOR_1 section2 SEPARATOR_2 section3</text>
</g>
<!-- 0&#45;&gt;3 -->
<g id="edge3" class="edge">
<title>0&#45;&gt;3</title>
<path fill="none" stroke="#000000" stroke-dasharray="5,2" d="M419.8144,-1873.1538C476.3931,-1857.6927 546.3234,-1838.5831 604.3439,-1822.7279"/>
<polygon fill="#000000" stroke="#000000" points="605.5654,-1826.0225 614.2891,-1820.0102 603.7201,-1819.2701 605.5654,-1826.0225"/>
<text text-anchor="middle" x="575.5804" y="-1842.4" font-family="Courier,monospace" font-size="14.00" fill="#000000">section1</text>
</g>
<!-- 1R2 -->
<g id="node5" class="node">
<title>1R2</title>
<polygon fill="#b2df8a" stroke="#000000" points="91.986,-1699 59.9987,-1681 91.986,-1663 123.9733,-1681 91.986,-1699"/>
<text text-anchor="middle" x="91.986" y="-1676.8" font-family="Courier,monospace" font-size="14.00" fill="#000000">R2</text>
</g>
<!-- 1&#45;&gt;1R2 -->
<g id="edge4" class="edge">
<title>1&#45;&gt;1R2</title>
<path fill="none" stroke="#000000" d="M91.986,-1762.6819C91.986,-1746.2256 91.986,-1725.654 91.986,-1709.2728"/>
<polygon fill="#000000" stroke="#000000" points="95.4861,-1709.1984 91.986,-1699.1984 88.4861,-1709.1984 95.4861,-1709.1984"/>
</g>
<!-- 4 -->
<g id="node6" class="node">
<title>4</title>
<polygon fill="none" stroke="#000000" points="427.951,-1709.6014 202.021,-1709.6014 202.021,-1652.3986 427.951,-1652.3986 427.951,-1709.6014"/>
<text text-anchor="middle" x="314.986" y="-1693.2" font-family="Courier,monospace" font-size="14.00" fill="#000000">State 4</text>
<text text-anchor="start" x="210.0035" y="-1660.4" font-family="Courier,monospace" font-size="14.00" fill="#000000"> &#160;0 $accept: Start $end .</text>
</g>
<!-- 2&#45;&gt;4 -->
<g id="edge5" class="edge">
<title>2&#45;&gt;4</title>
<path fill="none" stroke="#000000" d="M314.986,-1762.6819C314.986,-1749.7504 314.986,-1734.2778 314.986,-1720.2942"/>
<polygon fill="#000000" stroke="#000000" points="318.4861,-1719.9578 314.986,-1709.9578 311.4861,-1719.9579 318.4861,-1719.9578"/>
<text text-anchor="middle" x="331.7832" y="-1732" font-family="Courier,monospace" font-size="14.00" fill="#000000">$end</text>
</g>
<!-- 5 -->
<g id="node7" class="node">
<title>5</title>
<polygon fill="none" stroke="#000000" points="991.5978,-1709.6014 446.3742,-1709.6014 446.3742,-1652.3986 991.5978,-1652.3986 991.5978,-1709.6014"/>
<text text-anchor="middle" x="718.986" y="-1693.2" font-family="Courier,monospace" font-size="14.00" fill="#000000">State 5</text>
<text text-anchor="start" x="454.4301" y="-1660.4" font-family="Courier,monospace" font-size="14.00" fill="#000000"> &#160;1 Start: section1 SEPARATOR_1 . section2 SEPARATOR_2 section3</text>
</g>
<!-- 3&#45;&gt;5 -->
<g id="edge6" class="edge">
<title>3&#45;&gt;5</title>
<path fill="none" stroke="#000000" d="M718.986,-1762.6819C718.986,-1749.7504 718.986,-1734.2778 718.986,-1720.2942"/>
<polygon fill="#000000" stroke="#000000" points="722.4861,-1719.9578 718.986,-1709.9578 715.4861,-1719.9579 722.4861,-1719.9578"/>
<text text-anchor="middle" x="765.1783" y="-1732" font-family="Courier,monospace" font-size="14.00" fill="#000000">SEPARATOR_1</text>
</g>
<!-- 4R0 -->
<g id="node8" class="node">
<title>4R0</title>
<polygon fill="#a6cee3" stroke="#000000" points="314.986,-1580.2 274.6122,-1562.2 314.986,-1544.2 355.3598,-1562.2 314.986,-1580.2"/>
<text text-anchor="middle" x="314.986" y="-1558" font-family="Courier,monospace" font-size="14.00" fill="#000000">Acc</text>
</g>
<!-- 4&#45;&gt;4R0 -->
<g id="edge7" class="edge">
<title>4&#45;&gt;4R0</title>
<path fill="none" stroke="#000000" d="M314.986,-1652.2418C314.986,-1633.5281 314.986,-1609.2268 314.986,-1590.5875"/>
<polygon fill="#000000" stroke="#000000" points="318.4861,-1590.3522 314.986,-1580.3523 311.4861,-1590.3523 318.4861,-1590.3522"/>
</g>
<!-- 6 -->
<g id="node9" class="node">
<title>6</title>
<polygon fill="none" stroke="#000000" points="954.5978,-1599.6011 409.3742,-1599.6011 409.3742,-1524.7989 954.5978,-1524.7989 954.5978,-1599.6011"/>
<text text-anchor="middle" x="681.986" y="-1582.8" font-family="Courier,monospace" font-size="14.00" fill="#000000">State 6</text>
<text text-anchor="start" x="417.4301" y="-1550" font-family="Courier,monospace" font-size="14.00" fill="#000000"> &#160;1 Start: section1 SEPARATOR_1 section2 . SEPARATOR_2 section3</text>
<text text-anchor="start" x="417.4301" y="-1533.2" font-family="Courier,monospace" font-size="14.00" fill="#000000"> &#160;3 section2: section2 . EXPENSE NUM_REAL</text>
</g>
<!-- 5&#45;&gt;6 -->
<g id="edge8" class="edge">
<title>5&#45;&gt;6</title>
<path fill="none" stroke="#000000" stroke-dasharray="5,2" d="M710.0293,-1652.2418C706.0326,-1639.4091 701.2175,-1623.9488 696.7139,-1609.4886"/>
<polygon fill="#000000" stroke="#000000" points="699.975,-1608.1889 693.6597,-1599.682 693.2917,-1610.2705 699.975,-1608.1889"/>
<text text-anchor="middle" x="737.5804" y="-1621.6" font-family="Courier,monospace" font-size="14.00" fill="#000000">section2</text>
</g>
<!-- 5R4 -->
<g id="node10" class="node">
<title>5R4</title>
<polygon fill="#b2df8a" stroke="#000000" points="1004.986,-1580.2 972.9987,-1562.2 1004.986,-1544.2 1036.9733,-1562.2 1004.986,-1580.2"/>
<text text-anchor="middle" x="1004.986" y="-1558" font-family="Courier,monospace" font-size="14.00" fill="#000000">R4</text>
</g>
<!-- 5&#45;&gt;5R4 -->
<g id="edge9" class="edge">
<title>5&#45;&gt;5R4</title>
<path fill="none" stroke="#000000" d="M837.6167,-1652.3344C879.2071,-1639.521 925.1893,-1622.0886 963.986,-1599.4 972.2153,-1594.5874 980.2225,-1587.9197 986.9444,-1581.5569"/>
<polygon fill="#000000" stroke="#000000" points="989.5607,-1583.8912 994.1812,-1574.357 984.6235,-1578.9288 989.5607,-1583.8912"/>
</g>
<!-- 7 -->
<g id="node11" class="node">
<title>7</title>
<polygon fill="none" stroke="#000000" points="579.3288,-1472.0014 218.6432,-1472.0014 218.6432,-1414.7986 579.3288,-1414.7986 579.3288,-1472.0014"/>
<text text-anchor="middle" x="398.986" y="-1455.6" font-family="Courier,monospace" font-size="14.00" fill="#000000">State 7</text>
<text text-anchor="start" x="226.8147" y="-1422.8" font-family="Courier,monospace" font-size="14.00" fill="#000000"> &#160;3 section2: section2 EXPENSE . NUM_REAL</text>
</g>
<!-- 6&#45;&gt;7 -->
<g id="edge10" class="edge">
<title>6&#45;&gt;7</title>
<path fill="none" stroke="#000000" d="M593.2195,-1524.9369C555.8703,-1509.2581 512.8011,-1491.1782 476.724,-1476.0335"/>
<polygon fill="#000000" stroke="#000000" points="477.8041,-1472.6911 467.2289,-1472.0475 475.0946,-1479.1454 477.8041,-1472.6911"/>
<text text-anchor="middle" x="578.3811" y="-1494.4" font-family="Courier,monospace" font-size="14.00" fill="#000000">EXPENSE</text>
</g>
<!-- 8 -->
<g id="node12" class="node">
<title>8</title>
<polygon fill="none" stroke="#000000" points="1178.5978,-1472.0014 633.3742,-1472.0014 633.3742,-1414.7986 1178.5978,-1414.7986 1178.5978,-1472.0014"/>
<text text-anchor="middle" x="905.986" y="-1455.6" font-family="Courier,monospace" font-size="14.00" fill="#000000">State 8</text>
<text text-anchor="start" x="641.4301" y="-1422.8" font-family="Courier,monospace" font-size="14.00" fill="#000000"> &#160;1 Start: section1 SEPARATOR_1 section2 SEPARATOR_2 . section3</text>
</g>
<!-- 6&#45;&gt;8 -->
<g id="edge11" class="edge">
<title>6&#45;&gt;8</title>
<path fill="none" stroke="#000000" d="M752.2464,-1524.9369C781.3059,-1509.525 814.74,-1491.793 842.9919,-1476.8094"/>
<polygon fill="#000000" stroke="#000000" points="844.7759,-1479.825 851.9705,-1472.0475 841.4961,-1473.6409 844.7759,-1479.825"/>
<text text-anchor="middle" x="861.1783" y="-1494.4" font-family="Courier,monospace" font-size="14.00" fill="#000000">SEPARATOR_2</text>
</g>
<!-- 9 -->
<g id="node13" class="node">
<title>9</title>
<polygon fill="none" stroke="#000000" points="472.3288,-1353.2014 111.6432,-1353.2014 111.6432,-1295.9986 472.3288,-1295.9986 472.3288,-1353.2014"/>
<text text-anchor="middle" x="291.986" y="-1336.8" font-family="Courier,monospace" font-size="14.00" fill="#000000">State 9</text>
<text text-anchor="start" x="119.8147" y="-1304" font-family="Courier,monospace" font-size="14.00" fill="#000000"> &#160;3 section2: section2 EXPENSE NUM_REAL .</text>
</g>
<!-- 7&#45;&gt;9 -->
<g id="edge12" class="edge">
<title>7&#45;&gt;9</title>
<path fill="none" stroke="#000000" d="M373.0843,-1414.6418C358.6028,-1398.5633 340.4063,-1378.3601 324.921,-1361.1671"/>
<polygon fill="#000000" stroke="#000000" points="327.3132,-1358.5932 318.02,-1353.5051 322.1118,-1363.2779 327.3132,-1358.5932"/>
<text text-anchor="middle" x="389.5804" y="-1384" font-family="Courier,monospace" font-size="14.00" fill="#000000">NUM_REAL</text>
</g>
<!-- 10 -->
<g id="node14" class="node">
<title>10</title>
<polygon fill="none" stroke="#000000" points="1321.1503,-1362.0011 490.8217,-1362.0011 490.8217,-1287.1989 1321.1503,-1287.1989 1321.1503,-1362.0011"/>
<text text-anchor="middle" x="905.986" y="-1345.2" font-family="Courier,monospace" font-size="14.00" fill="#000000">State 10</text>
<text text-anchor="start" x="498.6539" y="-1312.4" font-family="Courier,monospace" font-size="14.00" fill="#000000"> &#160;1 Start: section1 SEPARATOR_1 section2 SEPARATOR_2 section3 .</text>
<text text-anchor="start" x="498.6539" y="-1295.6" font-family="Courier,monospace" font-size="14.00" fill="#000000"> &#160;5 section3: section3 . NAME DASH FISCALCODE DASH EMAIL DASH TELEPHONE DASH MILLESIMAL DASH UNIT</text>
</g>
<!-- 8&#45;&gt;10 -->
<g id="edge13" class="edge">
<title>8&#45;&gt;10</title>
<path fill="none" stroke="#000000" stroke-dasharray="5,2" d="M905.986,-1414.6418C905.986,-1401.9325 905.986,-1386.6459 905.986,-1372.306"/>
<polygon fill="#000000" stroke="#000000" points="909.4861,-1372.082 905.986,-1362.082 902.4861,-1372.0821 909.4861,-1372.082"/>
<text text-anchor="middle" x="939.5804" y="-1384" font-family="Courier,monospace" font-size="14.00" fill="#000000">section3</text>
</g>
<!-- 8R6 -->
<g id="node15" class="node">
<title>8R6</title>
<polygon fill="#b2df8a" stroke="#000000" points="1370.986,-1342.6 1338.9987,-1324.6 1370.986,-1306.6 1402.9733,-1324.6 1370.986,-1342.6"/>
<text text-anchor="middle" x="1370.986" y="-1320.4" font-family="Courier,monospace" font-size="14.00" fill="#000000">R6</text>
</g>
<!-- 8&#45;&gt;8R6 -->
<g id="edge14" class="edge">
<title>8&#45;&gt;8R6</title>
<path fill="none" stroke="#000000" d="M1109.9876,-1414.7865C1198.4315,-1400.2144 1290.6759,-1381.4471 1329.986,-1361.8 1338.637,-1357.4762 1346.8217,-1350.8041 1353.5701,-1344.2977"/>
<polygon fill="#000000" stroke="#000000" points="1356.3137,-1346.4967 1360.7743,-1336.8866 1351.2943,-1341.6175 1356.3137,-1346.4967"/>
</g>
<!-- 9R3 -->
<g id="node16" class="node">
<title>9R3</title>
<polygon fill="#b2df8a" stroke="#000000" points="291.986,-1223.8 259.9987,-1205.8 291.986,-1187.8 323.9733,-1205.8 291.986,-1223.8"/>
<text text-anchor="middle" x="291.986" y="-1201.6" font-family="Courier,monospace" font-size="14.00" fill="#000000">R3</text>
</g>
<!-- 9&#45;&gt;9R3 -->
<g id="edge15" class="edge">
<title>9&#45;&gt;9R3</title>
<path fill="none" stroke="#000000" d="M291.986,-1295.8418C291.986,-1277.1281 291.986,-1252.8268 291.986,-1234.1875"/>
<polygon fill="#000000" stroke="#000000" points="295.4861,-1233.9522 291.986,-1223.9523 288.4861,-1233.9523 295.4861,-1233.9522"/>
</g>
<!-- 11 -->
<g id="node17" class="node">
<title>11</title>
<polygon fill="none" stroke="#000000" points="1246.1503,-1234.4014 415.8217,-1234.4014 415.8217,-1177.1986 1246.1503,-1177.1986 1246.1503,-1234.4014"/>
<text text-anchor="middle" x="830.986" y="-1218" font-family="Courier,monospace" font-size="14.00" fill="#000000">State 11</text>
<text text-anchor="start" x="423.6539" y="-1185.2" font-family="Courier,monospace" font-size="14.00" fill="#000000"> &#160;5 section3: section3 NAME . DASH FISCALCODE DASH EMAIL DASH TELEPHONE DASH MILLESIMAL DASH UNIT</text>
</g>
<!-- 10&#45;&gt;11 -->
<g id="edge16" class="edge">
<title>10&#45;&gt;11</title>
<path fill="none" stroke="#000000" d="M882.4613,-1287.3369C873.5674,-1273.249 863.4497,-1257.2225 854.552,-1243.1286"/>
<polygon fill="#000000" stroke="#000000" points="857.4894,-1241.225 849.1915,-1234.6375 851.5703,-1244.9619 857.4894,-1241.225"/>
<text text-anchor="middle" x="887.7832" y="-1256.8" font-family="Courier,monospace" font-size="14.00" fill="#000000">NAME</text>
</g>
<!-- 10R1 -->
<g id="node18" class="node">
<title>10R1</title>
<polygon fill="#b2df8a" stroke="#000000" points="1295.986,-1223.8 1263.9987,-1205.8 1295.986,-1187.8 1327.9733,-1205.8 1295.986,-1223.8"/>
<text text-anchor="middle" x="1295.986" y="-1201.6" font-family="Courier,monospace" font-size="14.00" fill="#000000">R1</text>
</g>
<!-- 10&#45;&gt;10R1 -->
<g id="edge17" class="edge">
<title>10&#45;&gt;10R1</title>
<path fill="none" stroke="#000000" d="M1101.3782,-1287.3734C1152.6386,-1274.0905 1206.9779,-1256.7554 1254.986,-1234.6 1261.7784,-1231.4653 1268.6342,-1227.1866 1274.7442,-1222.8862"/>
<polygon fill="#000000" stroke="#000000" points="1277.1291,-1225.4745 1283.0682,-1216.7008 1272.9541,-1219.8559 1277.1291,-1225.4745"/>
</g>
<!-- 12 -->
<g id="node19" class="node">
<title>12</title>
<polygon fill="none" stroke="#000000" points="1246.1503,-1124.0014 415.8217,-1124.0014 415.8217,-1066.7986 1246.1503,-1066.7986 1246.1503,-1124.0014"/>
<text text-anchor="middle" x="830.986" y="-1107.6" font-family="Courier,monospace" font-size="14.00" fill="#000000">State 12</text>
<text text-anchor="start" x="423.6539" y="-1074.8" font-family="Courier,monospace" font-size="14.00" fill="#000000"> &#160;5 section3: section3 NAME DASH . FISCALCODE DASH EMAIL DASH TELEPHONE DASH MILLESIMAL DASH UNIT</text>
</g>
<!-- 11&#45;&gt;12 -->
<g id="edge18" class="edge">
<title>11&#45;&gt;12</title>
<path fill="none" stroke="#000000" d="M830.986,-1177.0819C830.986,-1164.1504 830.986,-1148.6778 830.986,-1134.6942"/>
<polygon fill="#000000" stroke="#000000" points="834.4861,-1134.3578 830.986,-1124.3578 827.4861,-1134.3579 834.4861,-1134.3578"/>
<text text-anchor="middle" x="847.7832" y="-1146.4" font-family="Courier,monospace" font-size="14.00" fill="#000000">DASH</text>
</g>
<!-- 13 -->
<g id="node20" class="node">
<title>13</title>
<polygon fill="none" stroke="#000000" points="1246.1503,-1013.6014 415.8217,-1013.6014 415.8217,-956.3986 1246.1503,-956.3986 1246.1503,-1013.6014"/>
<text text-anchor="middle" x="830.986" y="-997.2" font-family="Courier,monospace" font-size="14.00" fill="#000000">State 13</text>
<text text-anchor="start" x="423.6539" y="-964.4" font-family="Courier,monospace" font-size="14.00" fill="#000000"> &#160;5 section3: section3 NAME DASH FISCALCODE . DASH EMAIL DASH TELEPHONE DASH MILLESIMAL DASH UNIT</text>
</g>
<!-- 12&#45;&gt;13 -->
<g id="edge19" class="edge">
<title>12&#45;&gt;13</title>
<path fill="none" stroke="#000000" d="M830.986,-1066.6819C830.986,-1053.7504 830.986,-1038.2778 830.986,-1024.2942"/>
<polygon fill="#000000" stroke="#000000" points="834.4861,-1023.9578 830.986,-1013.9578 827.4861,-1023.9579 834.4861,-1023.9578"/>
<text text-anchor="middle" x="872.979" y="-1036" font-family="Courier,monospace" font-size="14.00" fill="#000000">FISCALCODE</text>
</g>
<!-- 14 -->
<g id="node21" class="node">
<title>14</title>
<polygon fill="none" stroke="#000000" points="1246.1503,-903.2014 415.8217,-903.2014 415.8217,-845.9986 1246.1503,-845.9986 1246.1503,-903.2014"/>
<text text-anchor="middle" x="830.986" y="-886.8" font-family="Courier,monospace" font-size="14.00" fill="#000000">State 14</text>
<text text-anchor="start" x="423.6539" y="-854" font-family="Courier,monospace" font-size="14.00" fill="#000000"> &#160;5 section3: section3 NAME DASH FISCALCODE DASH . EMAIL DASH TELEPHONE DASH MILLESIMAL DASH UNIT</text>
</g>
<!-- 13&#45;&gt;14 -->
<g id="edge20" class="edge">
<title>13&#45;&gt;14</title>
<path fill="none" stroke="#000000" d="M830.986,-956.2819C830.986,-943.3504 830.986,-927.8778 830.986,-913.8942"/>
<polygon fill="#000000" stroke="#000000" points="834.4861,-913.5578 830.986,-903.5578 827.4861,-913.5579 834.4861,-913.5578"/>
<text text-anchor="middle" x="847.7832" y="-925.6" font-family="Courier,monospace" font-size="14.00" fill="#000000">DASH</text>
</g>
<!-- 15 -->
<g id="node22" class="node">
<title>15</title>
<polygon fill="none" stroke="#000000" points="1246.1503,-792.8014 415.8217,-792.8014 415.8217,-735.5986 1246.1503,-735.5986 1246.1503,-792.8014"/>
<text text-anchor="middle" x="830.986" y="-776.4" font-family="Courier,monospace" font-size="14.00" fill="#000000">State 15</text>
<text text-anchor="start" x="423.6539" y="-743.6" font-family="Courier,monospace" font-size="14.00" fill="#000000"> &#160;5 section3: section3 NAME DASH FISCALCODE DASH EMAIL . DASH TELEPHONE DASH MILLESIMAL DASH UNIT</text>
</g>
<!-- 14&#45;&gt;15 -->
<g id="edge21" class="edge">
<title>14&#45;&gt;15</title>
<path fill="none" stroke="#000000" d="M830.986,-845.8819C830.986,-832.9504 830.986,-817.4778 830.986,-803.4942"/>
<polygon fill="#000000" stroke="#000000" points="834.4861,-803.1578 830.986,-793.1578 827.4861,-803.1579 834.4861,-803.1578"/>
<text text-anchor="middle" x="851.9825" y="-815.2" font-family="Courier,monospace" font-size="14.00" fill="#000000">EMAIL</text>
</g>
<!-- 16 -->
<g id="node23" class="node">
<title>16</title>
<polygon fill="none" stroke="#000000" points="1246.1503,-682.4014 415.8217,-682.4014 415.8217,-625.1986 1246.1503,-625.1986 1246.1503,-682.4014"/>
<text text-anchor="middle" x="830.986" y="-666" font-family="Courier,monospace" font-size="14.00" fill="#000000">State 16</text>
<text text-anchor="start" x="423.6539" y="-633.2" font-family="Courier,monospace" font-size="14.00" fill="#000000"> &#160;5 section3: section3 NAME DASH FISCALCODE DASH EMAIL DASH . TELEPHONE DASH MILLESIMAL DASH UNIT</text>
</g>
<!-- 15&#45;&gt;16 -->
<g id="edge22" class="edge">
<title>15&#45;&gt;16</title>
<path fill="none" stroke="#000000" d="M830.986,-735.4819C830.986,-722.5504 830.986,-707.0778 830.986,-693.0942"/>
<polygon fill="#000000" stroke="#000000" points="834.4861,-692.7578 830.986,-682.7578 827.4861,-692.7579 834.4861,-692.7578"/>
<text text-anchor="middle" x="847.7832" y="-704.8" font-family="Courier,monospace" font-size="14.00" fill="#000000">DASH</text>
</g>
<!-- 17 -->
<g id="node24" class="node">
<title>17</title>
<polygon fill="none" stroke="#000000" points="1246.1503,-572.0014 415.8217,-572.0014 415.8217,-514.7986 1246.1503,-514.7986 1246.1503,-572.0014"/>
<text text-anchor="middle" x="830.986" y="-555.6" font-family="Courier,monospace" font-size="14.00" fill="#000000">State 17</text>
<text text-anchor="start" x="423.6539" y="-522.8" font-family="Courier,monospace" font-size="14.00" fill="#000000"> &#160;5 section3: section3 NAME DASH FISCALCODE DASH EMAIL DASH TELEPHONE . DASH MILLESIMAL DASH UNIT</text>
</g>
<!-- 16&#45;&gt;17 -->
<g id="edge23" class="edge">
<title>16&#45;&gt;17</title>
<path fill="none" stroke="#000000" d="M830.986,-625.0819C830.986,-612.1504 830.986,-596.6778 830.986,-582.6942"/>
<polygon fill="#000000" stroke="#000000" points="834.4861,-582.3578 830.986,-572.3578 827.4861,-582.3579 834.4861,-582.3578"/>
<text text-anchor="middle" x="868.7797" y="-594.4" font-family="Courier,monospace" font-size="14.00" fill="#000000">TELEPHONE</text>
</g>
<!-- 18 -->
<g id="node25" class="node">
<title>18</title>
<polygon fill="none" stroke="#000000" points="1246.1503,-461.6014 415.8217,-461.6014 415.8217,-404.3986 1246.1503,-404.3986 1246.1503,-461.6014"/>
<text text-anchor="middle" x="830.986" y="-445.2" font-family="Courier,monospace" font-size="14.00" fill="#000000">State 18</text>
<text text-anchor="start" x="423.6539" y="-412.4" font-family="Courier,monospace" font-size="14.00" fill="#000000"> &#160;5 section3: section3 NAME DASH FISCALCODE DASH EMAIL DASH TELEPHONE DASH . MILLESIMAL DASH UNIT</text>
</g>
<!-- 17&#45;&gt;18 -->
<g id="edge24" class="edge">
<title>17&#45;&gt;18</title>
<path fill="none" stroke="#000000" d="M830.986,-514.6819C830.986,-501.7504 830.986,-486.2778 830.986,-472.2942"/>
<polygon fill="#000000" stroke="#000000" points="834.4861,-471.9578 830.986,-461.9578 827.4861,-471.9579 834.4861,-471.9578"/>
<text text-anchor="middle" x="847.7832" y="-484" font-family="Courier,monospace" font-size="14.00" fill="#000000">DASH</text>
</g>
<!-- 19 -->
<g id="node26" class="node">
<title>19</title>
<polygon fill="none" stroke="#000000" points="1246.1503,-351.2014 415.8217,-351.2014 415.8217,-293.9986 1246.1503,-293.9986 1246.1503,-351.2014"/>
<text text-anchor="middle" x="830.986" y="-334.8" font-family="Courier,monospace" font-size="14.00" fill="#000000">State 19</text>
<text text-anchor="start" x="423.6539" y="-302" font-family="Courier,monospace" font-size="14.00" fill="#000000"> &#160;5 section3: section3 NAME DASH FISCALCODE DASH EMAIL DASH TELEPHONE DASH MILLESIMAL . DASH UNIT</text>
</g>
<!-- 18&#45;&gt;19 -->
<g id="edge25" class="edge">
<title>18&#45;&gt;19</title>
<path fill="none" stroke="#000000" d="M830.986,-404.2819C830.986,-391.3504 830.986,-375.8778 830.986,-361.8942"/>
<polygon fill="#000000" stroke="#000000" points="834.4861,-361.5578 830.986,-351.5578 827.4861,-361.5579 834.4861,-361.5578"/>
<text text-anchor="middle" x="872.979" y="-373.6" font-family="Courier,monospace" font-size="14.00" fill="#000000">MILLESIMAL</text>
</g>
<!-- 20 -->
<g id="node27" class="node">
<title>20</title>
<polygon fill="none" stroke="#000000" points="1246.1503,-240.8014 415.8217,-240.8014 415.8217,-183.5986 1246.1503,-183.5986 1246.1503,-240.8014"/>
<text text-anchor="middle" x="830.986" y="-224.4" font-family="Courier,monospace" font-size="14.00" fill="#000000">State 20</text>
<text text-anchor="start" x="423.6539" y="-191.6" font-family="Courier,monospace" font-size="14.00" fill="#000000"> &#160;5 section3: section3 NAME DASH FISCALCODE DASH EMAIL DASH TELEPHONE DASH MILLESIMAL DASH . UNIT</text>
</g>
<!-- 19&#45;&gt;20 -->
<g id="edge26" class="edge">
<title>19&#45;&gt;20</title>
<path fill="none" stroke="#000000" d="M830.986,-293.8819C830.986,-280.9504 830.986,-265.4778 830.986,-251.4942"/>
<polygon fill="#000000" stroke="#000000" points="834.4861,-251.1578 830.986,-241.1578 827.4861,-251.1579 834.4861,-251.1578"/>
<text text-anchor="middle" x="847.7832" y="-263.2" font-family="Courier,monospace" font-size="14.00" fill="#000000">DASH</text>
</g>
<!-- 21 -->
<g id="node28" class="node">
<title>21</title>
<polygon fill="none" stroke="#000000" points="1246.1503,-130.4014 415.8217,-130.4014 415.8217,-73.1986 1246.1503,-73.1986 1246.1503,-130.4014"/>
<text text-anchor="middle" x="830.986" y="-114" font-family="Courier,monospace" font-size="14.00" fill="#000000">State 21</text>
<text text-anchor="start" x="423.6539" y="-81.2" font-family="Courier,monospace" font-size="14.00" fill="#000000"> &#160;5 section3: section3 NAME DASH FISCALCODE DASH EMAIL DASH TELEPHONE DASH MILLESIMAL DASH UNIT .</text>
</g>
<!-- 20&#45;&gt;21 -->
<g id="edge27" class="edge">
<title>20&#45;&gt;21</title>
<path fill="none" stroke="#000000" d="M830.986,-183.4819C830.986,-170.5504 830.986,-155.0778 830.986,-141.0942"/>
<polygon fill="#000000" stroke="#000000" points="834.4861,-140.7578 830.986,-130.7578 827.4861,-140.7579 834.4861,-140.7578"/>
<text text-anchor="middle" x="847.7832" y="-152.8" font-family="Courier,monospace" font-size="14.00" fill="#000000">UNIT</text>
</g>
<!-- 21R5 -->
<g id="node29" class="node">
<title>21R5</title>
<polygon fill="#b2df8a" stroke="#000000" points="830.986,-36 798.9987,-18 830.986,0 862.9733,-18 830.986,-36"/>
<text text-anchor="middle" x="830.986" y="-13.8" font-family="Courier,monospace" font-size="14.00" fill="#000000">R5</text>
</g>
<!-- 21&#45;&gt;21R5 -->
<g id="edge28" class="edge">
<title>21&#45;&gt;21R5</title>
<path fill="none" stroke="#000000" d="M830.986,-72.9608C830.986,-64.4388 830.986,-55.1159 830.986,-46.6085"/>
<polygon fill="#000000" stroke="#000000" points="834.4861,-46.3902 830.986,-36.3903 827.4861,-46.3903 834.4861,-46.3902"/>
</g>
</g>
</svg>
